# Blender v2.83.1 OBJ File: 'stacked_boxes.blend'
# www.blender.org
mtllib box_stack.mtl
o mTop_cTop
v 0.192839 4.219471 0.234105
v -0.275371 4.219471 0.234105
v -0.275371 3.751261 0.234105
v 0.192839 3.751261 0.234105
v -0.275371 4.219471 -0.234105
v -0.275371 3.751261 -0.234105
v 0.192839 4.219471 -0.234105
v 0.192839 3.751261 -0.234105
vt 1.000000 1.000000
vt 0.000000 -0.000000
vt 0.000000 1.000000
vt 1.000000 1.000000
vt 0.000000 -0.000000
vt 0.000000 1.000000
vt 0.000000 1.000000
vt 1.000000 -0.000000
vt 1.000000 -0.000000
vt 1.000000 1.000000
vt 0.000000 1.000000
vt 0.000000 -0.000000
vt 1.000000 -0.000000
vt 1.000000 -0.000000
vt 0.000000 -0.000000
vt 1.000000 1.000000
vn 0.0000 -0.0000 1.0000
vn -1.0000 0.0000 0.0000
vn 0.0000 0.0000 -1.0000
vn 1.0000 0.0000 0.0000
vn 0.0000 -1.0000 0.0000
vn 0.0000 1.0000 0.0000
usemtl mat_top
s 1
f 2/1/1 4/2/1 1/3/1
f 5/4/2 3/5/2 2/6/2
f 7/7/3 6/8/3 5/4/3
f 1/3/4 8/9/4 7/10/4
f 3/11/5 8/9/5 4/2/5
f 5/4/6 1/12/6 7/13/6
f 2/1/1 3/14/1 4/2/1
f 5/4/2 6/8/2 3/5/2
f 7/7/3 8/15/3 6/8/3
f 1/3/4 4/2/4 8/9/4
f 3/11/5 6/16/5 8/9/5
f 5/4/6 2/6/6 1/12/6
o mMid_cMid
v -0.041266 3.745955 0.754531
v -0.795797 3.745955 0.000000
v -0.795797 2.678886 0.000000
v -0.041266 2.678885 0.754531
v -0.041266 3.745955 -0.754531
v -0.041266 2.678886 -0.754531
v 0.713265 3.745955 0.000000
v 0.713265 2.678886 0.000000
vt 1.003117 1.000000
vt 0.000000 0.000000
vt 0.003117 1.000000
vt 1.000000 1.000000
vt 0.000000 0.000000
vt 0.000000 1.000000
vt 0.000000 1.000000
vt 1.000000 0.000000
vt 0.000000 1.000000
vt 1.000000 0.000000
vt 1.000000 1.000000
vt 0.000000 1.000000
vt 0.000000 0.000000
vt 1.000000 0.000000
vt 1.000000 0.000000
vt 0.000000 0.000000
vt 1.000000 1.000000
vn -0.7071 -0.0000 0.7071
vn -0.7071 0.0000 -0.7071
vn 0.7071 0.0000 -0.7071
vn 0.7071 -0.0000 0.7071
vn 0.0000 -1.0000 -0.0000
vn 0.0000 1.0000 0.0000
usemtl mat_mid
s 1
f 10/17/7 12/18/7 9/19/7
f 13/20/8 11/21/8 10/22/8
f 15/23/9 14/24/9 13/20/9
f 9/25/10 16/26/10 15/27/10
f 11/28/11 16/26/11 12/18/11
f 13/20/12 9/29/12 15/30/12
f 10/17/7 11/31/7 12/18/7
f 13/20/8 14/24/8 11/21/8
f 15/23/9 16/32/9 14/24/9
f 9/25/10 12/18/10 16/26/10
f 11/28/11 14/33/11 16/26/11
f 13/20/12 10/22/12 9/29/12
o mBot_cBot
v -0.671875 -0.330679 -0.671875
v -0.671875 -0.330680 0.671875
v 0.671875 -0.330679 -0.671875
v 0.671875 -0.330680 0.671875
v -0.854167 -0.330679 -0.364583
v -0.916667 -0.330680 -0.000000
v -0.854167 -0.330680 0.364583
v -0.364583 -0.330679 -0.854167
v 0.000000 -0.330679 -0.916667
v 0.364583 -0.330679 -0.854167
v 0.854167 -0.330679 -0.364583
v 0.916667 -0.330680 -0.000000
v 0.854167 -0.330680 0.364583
v -0.364583 -0.330680 0.854167
v 0.000000 -0.330680 0.916667
v 0.364583 -0.330680 0.854167
v -0.430556 -0.330679 0.430555
v -0.458333 -0.330679 -0.000000
v -0.430556 -0.330679 -0.430556
v -0.000000 -0.330680 0.458333
v 0.000000 -0.330679 -0.000000
v 0.000000 -0.330679 -0.458333
v 0.430556 -0.330680 0.430555
v 0.458333 -0.330679 -0.000000
v 0.430556 -0.330679 -0.430556
v -0.758761 0.159824 -0.758761
v -0.758761 0.159824 0.758760
v 0.758761 0.159824 -0.758761
v 0.758761 0.159824 0.758760
v -0.964626 0.159824 -0.411731
v -1.035208 0.159824 -0.000000
v -0.964626 0.159824 0.411730
v -0.411731 0.159824 -0.964626
v -0.000000 0.159824 -1.035208
v 0.411731 0.159824 -0.964626
v 0.964626 0.159824 -0.411731
v 1.035208 0.159824 -0.000000
v 0.964626 0.159824 0.411730
v -0.411731 0.159824 0.964626
v -0.000000 0.159824 1.035208
v 0.411731 0.159824 0.964626
v -0.823952 0.724570 -0.823953
v -0.823952 0.724570 0.823952
v 0.823952 0.724570 -0.823953
v 0.823952 0.724570 0.823952
v -1.047505 0.724570 -0.447106
v -1.124152 0.724570 -0.000000
v -1.047505 0.724570 0.447106
v -0.447106 0.724570 -1.047506
v -0.000000 0.724570 -1.124152
v 0.447106 0.724570 -1.047505
v 1.047505 0.724570 -0.447106
v 1.124152 0.724570 -0.000000
v 1.047505 0.724570 0.447106
v -0.447106 0.724570 1.047505
v -0.000000 0.724570 1.124152
v 0.447106 0.724570 1.047505
v -0.831571 1.283176 -0.831571
v -0.831571 1.283175 0.831571
v 0.831571 1.283176 -0.831571
v 0.831571 1.283175 0.831571
v -1.057191 1.283176 -0.451240
v -1.134546 1.283175 -0.000000
v -1.057191 1.283175 0.451240
v -0.451240 1.283176 -1.057191
v -0.000000 1.283176 -1.134546
v 0.451240 1.283176 -1.057191
v 1.057191 1.283176 -0.451240
v 1.134546 1.283175 -0.000000
v 1.057191 1.283175 0.451240
v -0.451240 1.283175 1.057191
v -0.000000 1.283175 1.134546
v 0.451240 1.283175 1.057191
v -0.822354 1.814761 -0.822355
v -0.822354 1.814761 0.822354
v 0.822354 1.814761 -0.822355
v 0.822354 1.814761 0.822354
v -1.045474 1.814761 -0.446239
v -1.121972 1.814761 -0.000000
v -1.045474 1.814761 0.446239
v -0.446239 1.814761 -1.045474
v -0.000000 1.814761 -1.121972
v 0.446239 1.814761 -1.045474
v 1.045474 1.814761 -0.446239
v 1.121972 1.814761 -0.000000
v 1.045474 1.814761 0.446239
v -0.446239 1.814761 1.045474
v -0.000000 1.814761 1.121972
v 0.446239 1.814761 1.045474
v -0.741352 2.304014 -0.741352
v -0.741352 2.304013 0.741352
v 0.741352 2.304014 -0.741352
v 0.741352 2.304013 0.741352
v -0.942494 2.304014 -0.402284
v -1.011457 2.304013 -0.000000
v -0.942494 2.304013 0.402284
v -0.402284 2.304014 -0.942494
v -0.000000 2.304014 -1.011457
v 0.402284 2.304014 -0.942494
v 0.942494 2.304014 -0.402284
v 1.011457 2.304013 -0.000000
v 0.942494 2.304013 0.402284
v -0.402284 2.304013 0.942494
v -0.000000 2.304013 1.011456
v 0.402284 2.304013 0.942494
v -0.629312 2.667392 -0.629312
v -0.629312 2.667392 0.629312
v 0.629312 2.667392 -0.629312
v 0.629312 2.667392 0.629312
v -0.800056 2.667392 -0.341487
v -0.858596 2.667392 -0.000000
v -0.800056 2.667392 0.341487
v -0.341487 2.667392 -0.800056
v -0.000000 2.667392 -0.858597
v 0.341487 2.667392 -0.800056
v 0.800056 2.667392 -0.341487
v 0.858596 2.667392 -0.000000
v 0.800056 2.667392 0.341487
v -0.341487 2.667391 0.800056
v -0.000000 2.667391 0.858596
v 0.341487 2.667391 0.800056
vt 0.000000 0.000000
vt 0.000000 0.000000
vt 0.000000 0.000000
vt 0.000000 0.000000
vt 0.000000 0.000000
vt 0.000000 0.000000
vt 0.000000 0.000000
vt 0.000000 0.000000
vt 0.000000 0.000000
vt 0.000000 0.000000
vt 0.000000 0.000000
vt 0.000000 0.000000
vt 0.000000 0.000000
vt 0.000000 0.000000
vt 0.000000 0.000000
vt 0.000000 0.000000
vt 0.000000 0.000000
vt 0.000000 0.000000
vt 0.000000 0.000000
vt 0.000000 0.000000
vt 0.000000 0.000000
vt 0.000000 0.000000
vt 0.000000 0.000000
vt 0.000000 0.000000
vt 0.000000 0.000000
vt 0.000000 0.000000
vt 0.000000 0.000000
vt 0.000000 0.000000
vt 0.000000 0.000000
vt 0.000000 0.000000
vt 0.000000 0.000000
vt 0.000000 0.000000
vt 0.000000 0.000000
vt 0.000000 0.000000
vt 0.000000 0.000000
vt 0.000000 0.000000
vt 0.000000 0.000000
vt 0.000000 0.000000
vt 0.000000 0.000000
vt 0.000000 0.000000
vt 0.000000 0.000000
vt 0.000000 0.000000
vt 0.000000 0.000000
vt 0.000000 0.000000
vt 0.000000 0.000000
vt 0.000000 0.000000
vt 0.000000 0.000000
vt 0.000000 0.000000
vt 0.000000 0.000000
vt 0.000000 0.000000
vt 0.000000 0.000000
vt 0.000000 0.000000
vt 0.000000 0.000000
vt 0.000000 0.000000
vt 0.000000 0.000000
vt 0.000000 0.000000
vt 0.000000 0.000000
vt 0.000000 0.000000
vt 0.000000 0.000000
vt 0.000000 0.000000
vt 0.000000 0.000000
vt 0.000000 0.000000
vt 0.000000 0.000000
vt 0.000000 0.000000
vt 0.000000 0.000000
vt 0.000000 0.000000
vt 0.000000 0.000000
vt 0.000000 0.000000
vt 0.000000 0.000000
vt 0.000000 0.000000
vt 0.000000 0.000000
vt 0.000000 0.000000
vt 0.000000 0.000000
vt 0.000000 0.000000
vt 0.000000 0.000000
vt 0.000000 0.000000
vt 0.000000 0.000000
vt 0.000000 0.000000
vt 0.000000 0.000000
vt 0.000000 0.000000
vt 0.000000 0.000000
vt 0.000000 0.000000
vt 0.000000 0.000000
vt 0.000000 0.000000
vt 0.000000 0.000000
vt 0.000000 0.000000
vt 0.000000 0.000000
vt 0.000000 0.000000
vt 0.000000 0.000000
vt 0.000000 0.000000
vt 0.000000 0.000000
vt 0.000000 0.000000
vt 0.000000 0.000000
vt 0.000000 0.000000
vt 0.000000 0.000000
vt 0.000000 0.000000
vt 0.000000 0.000000
vt 0.000000 0.000000
vt 0.000000 0.000000
vt 0.000000 0.000000
vt 0.000000 0.000000
vt 0.000000 0.000000
vt 0.000000 0.000000
vt 0.000000 0.000000
vt 0.000000 0.000000
vt 0.000000 0.000000
vt 0.000000 0.000000
vt 0.000000 0.000000
vt 0.000000 0.000000
vt 0.000000 0.000000
vt 0.000000 0.000000
vt 0.000000 0.000000
vt 0.000000 0.000000
vt 0.000000 0.000000
vt 0.000000 0.000000
vt 0.000000 0.000000
vt 0.000000 0.000000
vt 0.000000 0.000000
vt 0.000000 0.000000
vt 0.000000 0.000000
vt 0.000000 0.000000
vn -0.0000 -1.0000 -0.0000
vn 0.1644 -0.2317 0.9588
vn 0.4958 -0.2359 -0.8358
vn -0.8358 -0.2359 -0.4958
vn 0.4958 -0.2359 0.8358
vn 0.8358 -0.2359 -0.4958
vn -0.9588 -0.2317 -0.1644
vn 0.9588 -0.2317 -0.1644
vn -0.9588 -0.2317 0.1644
vn 0.9588 -0.2317 0.1644
vn -0.8358 -0.2359 0.4958
vn 0.8358 -0.2359 0.4958
vn -0.4958 -0.2359 -0.8358
vn -0.4958 -0.2359 0.8358
vn -0.1644 -0.2317 -0.9588
vn -0.1644 -0.2317 0.9588
vn 0.1644 -0.2317 -0.9588
vn 0.8495 -0.1562 0.5039
vn -0.5039 -0.1562 -0.8495
vn -0.5039 -0.1562 0.8495
vn -0.1670 -0.1534 -0.9740
vn -0.1670 -0.1534 0.9740
vn 0.1670 -0.1534 -0.9740
vn 0.1670 -0.1534 0.9740
vn 0.5039 -0.1562 -0.8495
vn -0.8495 -0.1562 -0.5039
vn 0.5039 -0.1562 0.8495
vn 0.8495 -0.1562 -0.5039
vn -0.9740 -0.1534 -0.1670
vn 0.9740 -0.1534 -0.1670
vn -0.9740 -0.1534 0.1670
vn 0.9740 -0.1534 0.1670
vn -0.8495 -0.1562 0.5039
vn -0.9855 -0.0183 -0.1689
vn 0.9855 -0.0183 -0.1689
vn -0.9855 -0.0183 0.1689
vn 0.9855 -0.0183 0.1689
vn -0.8599 -0.0187 0.5101
vn 0.8599 -0.0187 0.5101
vn -0.5101 -0.0187 -0.8599
vn -0.5101 -0.0187 0.8599
vn -0.1689 -0.0183 -0.9855
vn -0.1689 -0.0183 0.9855
vn 0.1689 -0.0183 -0.9855
vn 0.1689 -0.0183 0.9855
vn 0.5101 -0.0187 -0.8599
vn -0.8599 -0.0187 -0.5101
vn 0.5101 -0.0187 0.8599
vn 0.8599 -0.0187 -0.5101
vn 0.1689 0.0233 -0.9854
vn 0.1689 0.0233 0.9854
vn 0.5101 0.0237 -0.8598
vn -0.8598 0.0237 -0.5101
vn 0.5101 0.0237 0.8598
vn 0.8598 0.0237 -0.5101
vn -0.9854 0.0233 -0.1689
vn 0.9854 0.0233 -0.1689
vn -0.9854 0.0233 0.1689
vn 0.9854 0.0233 0.1689
vn -0.8598 0.0237 0.5101
vn 0.8598 0.0237 0.5101
vn -0.5101 0.0237 -0.8598
vn -0.5101 0.0237 0.8598
vn -0.1689 0.0233 -0.9854
vn -0.1689 0.0233 0.9854
vn 0.8387 0.2212 0.4976
vn -0.4976 0.2212 -0.8387
vn -0.4976 0.2212 0.8387
vn -0.1649 0.2173 -0.9621
vn -0.1649 0.2173 0.9621
vn 0.1649 0.2173 -0.9621
vn 0.1649 0.2173 0.9621
vn 0.4976 0.2212 -0.8387
vn -0.8387 0.2212 -0.4976
vn 0.4976 0.2212 0.8387
vn 0.8387 0.2212 -0.4976
vn -0.9621 0.2173 -0.1649
vn 0.9621 0.2173 -0.1649
vn -0.9621 0.2173 0.1649
vn 0.9621 0.2173 0.1649
vn -0.8387 0.2212 0.4976
vn 0.9105 0.3830 -0.1561
vn -0.9105 0.3830 0.1561
vn 0.9105 0.3830 0.1561
vn -0.7922 0.3892 0.4700
vn 0.7922 0.3892 0.4700
vn -0.4700 0.3892 -0.7922
vn -0.4700 0.3892 0.7922
vn -0.1561 0.3830 -0.9105
vn -0.1561 0.3830 0.9105
vn 0.1561 0.3830 -0.9105
vn 0.1561 0.3830 0.9105
vn 0.4700 0.3892 -0.7922
vn -0.7922 0.3892 -0.4700
vn 0.4700 0.3892 0.7922
vn 0.7922 0.3892 -0.4700
vn -0.9105 0.3830 -0.1561
vn -0.0000 1.0000 0.0000
usemtl mat_bot
s off
f 33/34/13 37/35/13 36/36/13
f 35/37/13 37/35/13 34/38/13
f 37/35/13 39/39/13 36/36/13
f 37/35/13 41/40/13 40/41/13
f 18/42/13 33/34/13 30/43/13
f 23/44/13 34/38/13 33/34/13
f 21/45/13 34/38/13 22/46/13
f 17/47/13 35/37/13 21/45/13
f 24/48/13 38/49/13 35/37/13
f 38/49/13 26/50/13 41/40/13
f 41/40/13 19/51/13 27/52/13
f 40/41/13 27/52/13 28/53/13
f 40/41/13 29/54/13 39/39/13
f 39/39/13 20/55/13 32/56/13
f 36/36/13 32/56/13 31/57/13
f 30/43/13 36/36/13 31/57/13
f 32/56/14 56/58/14 31/57/14
f 19/51/15 51/59/15 44/60/15
f 17/47/16 46/61/16 42/62/16
f 20/55/17 57/63/17 32/56/17
f 19/51/18 52/64/18 27/52/18
f 21/45/19 47/65/19 46/61/19
f 27/52/20 53/66/20 28/53/20
f 23/44/21 47/65/21 22/46/21
f 29/54/22 53/66/22 54/67/22
f 18/42/23 48/68/23 23/44/23
f 20/55/24 54/67/24 45/69/24
f 17/47/25 49/70/25 24/48/25
f 18/42/26 55/71/26 43/72/26
f 24/48/27 50/73/27 25/74/27
f 30/43/28 56/58/28 55/71/28
f 26/50/29 50/73/29 51/59/29
f 45/69/30 70/75/30 61/76/30
f 42/62/31 65/77/31 49/70/31
f 43/72/32 71/78/32 59/79/32
f 49/70/33 66/80/33 50/73/33
f 55/71/34 72/81/34 71/78/34
f 51/59/35 66/80/35 67/82/35
f 57/63/36 72/81/36 56/58/36
f 44/60/37 67/82/37 60/83/37
f 42/62/38 62/84/38 58/85/38
f 45/69/39 73/86/39 57/63/39
f 44/60/40 68/87/40 52/64/40
f 46/61/41 63/88/41 62/84/41
f 52/64/42 69/89/42 53/66/42
f 48/68/43 63/88/43 47/65/43
f 54/67/44 69/89/44 70/75/44
f 43/72/45 64/90/45 48/68/45
f 62/84/46 79/91/46 78/92/46
f 68/87/47 85/93/47 69/89/47
f 64/90/48 79/91/48 63/88/48
f 70/75/49 85/93/49 86/94/49
f 59/79/50 80/95/50 64/90/50
f 61/76/51 86/94/51 77/96/51
f 58/85/52 81/97/52 65/77/52
f 59/79/53 87/98/53 75/99/53
f 65/77/54 82/100/54 66/80/54
f 71/78/55 88/101/55 87/98/55
f 67/82/56 82/100/56 83/102/56
f 73/86/57 88/101/57 72/81/57
f 60/83/58 83/102/58 76/103/58
f 58/85/59 78/92/59 74/104/59
f 61/76/60 89/105/60 73/86/60
f 60/83/61 84/106/61 68/87/61
f 82/100/62 99/107/62 83/102/62
f 88/101/63 105/108/63 104/109/63
f 83/102/64 92/110/64 76/103/64
f 78/92/65 90/111/65 74/104/65
f 89/105/66 93/112/66 105/108/66
f 84/106/67 92/110/67 100/113/67
f 79/91/68 94/114/68 78/92/68
f 85/93/69 100/113/69 101/115/69
f 79/91/70 96/116/70 95/117/70
f 85/93/71 102/118/71 86/94/71
f 80/95/72 91/119/72 96/116/72
f 86/94/73 93/112/73 77/96/73
f 81/97/74 90/111/74 97/120/74
f 87/98/75 91/119/75 75/99/75
f 82/100/76 97/120/76 98/121/76
f 88/101/77 103/122/77 87/98/77
f 102/118/78 109/123/78 93/112/78
f 97/120/79 106/124/79 113/125/79
f 103/122/80 107/126/80 91/119/80
f 98/121/81 113/125/81 114/127/81
f 104/109/82 119/128/82 103/122/82
f 98/121/83 115/129/83 99/107/83
f 104/109/84 121/130/84 120/131/84
f 99/107/85 108/132/85 92/110/85
f 94/114/86 106/124/86 90/111/86
f 105/108/87 109/123/87 121/130/87
f 100/113/88 108/132/88 116/133/88
f 95/117/89 110/134/89 94/114/89
f 101/115/90 116/133/90 117/135/90
f 95/117/91 112/136/91 111/137/91
f 101/115/92 118/138/92 102/118/92
f 96/116/93 107/126/93 112/136/93
f 117/135/94 132/139/94 133/140/94
f 111/137/95 128/141/95 127/142/95
f 117/135/96 134/143/96 118/138/96
f 112/136/97 123/144/97 128/141/97
f 118/138/98 125/145/98 109/123/98
f 113/125/99 122/146/99 129/147/99
f 119/128/100 123/144/100 107/126/100
f 114/127/101 129/147/101 130/148/101
f 120/131/102 135/149/102 119/128/102
f 114/127/103 131/150/103 115/129/103
f 120/131/104 137/151/104 136/152/104
f 115/129/105 124/153/105 108/132/105
f 110/134/106 122/146/106 106/124/106
f 121/130/107 125/145/107 137/151/107
f 116/133/108 124/153/108 132/139/108
f 111/137/109 126/154/109 110/134/109
f 133/140/110 130/148/110 136/152/110
f 33/34/13 34/38/13 37/35/13
f 35/37/13 38/49/13 37/35/13
f 37/35/13 40/41/13 39/39/13
f 37/35/13 38/49/13 41/40/13
f 18/42/13 23/44/13 33/34/13
f 23/44/13 22/46/13 34/38/13
f 21/45/13 35/37/13 34/38/13
f 17/47/13 24/48/13 35/37/13
f 24/48/13 25/74/13 38/49/13
f 38/49/13 25/74/13 26/50/13
f 41/40/13 26/50/13 19/51/13
f 40/41/13 41/40/13 27/52/13
f 40/41/13 28/53/13 29/54/13
f 39/39/13 29/54/13 20/55/13
f 36/36/13 39/39/13 32/56/13
f 30/43/13 33/34/13 36/36/13
f 32/56/14 57/63/14 56/58/14
f 19/51/15 26/50/15 51/59/15
f 17/47/16 21/45/16 46/61/16
f 20/55/17 45/69/17 57/63/17
f 19/51/18 44/60/18 52/64/18
f 21/45/19 22/46/19 47/65/19
f 27/52/20 52/64/20 53/66/20
f 23/44/21 48/68/21 47/65/21
f 29/54/22 28/53/22 53/66/22
f 18/42/23 43/72/23 48/68/23
f 20/55/24 29/54/24 54/67/24
f 17/47/25 42/62/25 49/70/25
f 18/42/26 30/43/26 55/71/26
f 24/48/27 49/70/27 50/73/27
f 30/43/28 31/57/28 56/58/28
f 26/50/29 25/74/29 50/73/29
f 45/69/30 54/67/30 70/75/30
f 42/62/31 58/85/31 65/77/31
f 43/72/32 55/71/32 71/78/32
f 49/70/33 65/77/33 66/80/33
f 55/71/34 56/58/34 72/81/34
f 51/59/35 50/73/35 66/80/35
f 57/63/36 73/86/36 72/81/36
f 44/60/37 51/59/37 67/82/37
f 42/62/38 46/61/38 62/84/38
f 45/69/39 61/76/39 73/86/39
f 44/60/40 60/83/40 68/87/40
f 46/61/41 47/65/41 63/88/41
f 52/64/42 68/87/42 69/89/42
f 48/68/43 64/90/43 63/88/43
f 54/67/44 53/66/44 69/89/44
f 43/72/45 59/79/45 64/90/45
f 62/84/46 63/88/46 79/91/46
f 68/87/47 84/106/47 85/93/47
f 64/90/48 80/95/48 79/91/48
f 70/75/49 69/89/49 85/93/49
f 59/79/50 75/99/50 80/95/50
f 61/76/51 70/75/51 86/94/51
f 58/85/52 74/104/52 81/97/52
f 59/79/53 71/78/53 87/98/53
f 65/77/54 81/97/54 82/100/54
f 71/78/55 72/81/55 88/101/55
f 67/82/56 66/80/56 82/100/56
f 73/86/57 89/105/57 88/101/57
f 60/83/58 67/82/58 83/102/58
f 58/85/59 62/84/59 78/92/59
f 61/76/60 77/96/60 89/105/60
f 60/83/61 76/103/61 84/106/61
f 82/100/62 98/121/62 99/107/62
f 88/101/63 89/105/63 105/108/63
f 83/102/64 99/107/64 92/110/64
f 78/92/65 94/114/65 90/111/65
f 89/105/66 77/96/66 93/112/66
f 84/106/67 76/103/67 92/110/67
f 79/91/68 95/117/68 94/114/68
f 85/93/69 84/106/69 100/113/69
f 79/91/70 80/95/70 96/116/70
f 85/93/71 101/115/71 102/118/71
f 80/95/72 75/99/72 91/119/72
f 86/94/73 102/118/73 93/112/73
f 81/97/74 74/104/74 90/111/74
f 87/98/75 103/122/75 91/119/75
f 82/100/76 81/97/76 97/120/76
f 88/101/77 104/109/77 103/122/77
f 102/118/78 118/138/78 109/123/78
f 97/120/79 90/111/79 106/124/79
f 103/122/80 119/128/80 107/126/80
f 98/121/81 97/120/81 113/125/81
f 104/109/82 120/131/82 119/128/82
f 98/121/83 114/127/83 115/129/83
f 104/109/84 105/108/84 121/130/84
f 99/107/85 115/129/85 108/132/85
f 94/114/86 110/134/86 106/124/86
f 105/108/87 93/112/87 109/123/87
f 100/113/88 92/110/88 108/132/88
f 95/117/89 111/137/89 110/134/89
f 101/115/90 100/113/90 116/133/90
f 95/117/91 96/116/91 112/136/91
f 101/115/92 117/135/92 118/138/92
f 96/116/93 91/119/93 107/126/93
f 117/135/94 116/133/94 132/139/94
f 111/137/95 112/136/95 128/141/95
f 117/135/96 133/140/96 134/143/96
f 112/136/97 107/126/97 123/144/97
f 118/138/98 134/143/98 125/145/98
f 113/125/99 106/124/99 122/146/99
f 119/128/100 135/149/100 123/144/100
f 114/127/101 113/125/101 129/147/101
f 120/131/102 136/152/102 135/149/102
f 114/127/103 130/148/103 131/150/103
f 120/131/104 121/130/104 137/151/104
f 115/129/105 131/150/105 124/153/105
f 110/134/106 126/154/106 122/146/106
f 121/130/107 109/123/107 125/145/107
f 116/133/108 108/132/108 124/153/108
f 111/137/109 127/142/109 126/154/109
f 122/146/110 126/154/110 129/147/110
f 126/154/110 127/142/110 129/147/110
f 127/142/110 128/141/110 135/149/110
f 128/141/110 123/144/110 135/149/110
f 135/149/110 136/152/110 127/142/110
f 136/152/110 137/151/110 134/143/110
f 137/151/110 125/145/110 134/143/110
f 134/143/110 133/140/110 136/152/110
f 133/140/110 132/139/110 131/150/110
f 132/139/110 124/153/110 131/150/110
f 131/150/110 130/148/110 133/140/110
f 130/148/110 129/147/110 127/142/110
f 136/152/110 130/148/110 127/142/110
